<svg xmlns="http://www.w3.org/2000/svg" width="197.492" height="138.862" viewBox="0 0 197.492 138.862"><defs><style>.a{fill:#ce2323;}</style></defs><circle class="a" cx="3.857" cy="3.857" r="3.857" transform="translate(170.949 109.997)"/><path class="a" d="M197.377,158.055a3.876,3.876,0,0,0-1.79-2.387l-29.8-17.575a13.3,13.3,0,0,0-4.085-5.706,35.705,35.705,0,0,0-2.272-5.13,13.135,13.135,0,0,0-1.453-9.05,13.362,13.362,0,0,0-6.936-5.964,13.16,13.16,0,0,0-.442-11.505,13.377,13.377,0,0,0-8.235-6.564,13.768,13.768,0,0,0-3.355-.51,13.145,13.145,0,0,0-1.649-7.748,13.4,13.4,0,0,0-8.119-6.354A13.618,13.618,0,0,0,119,80.713c-.385.2-7.083,3.763-16.552,8.853C94.832,85.09,82.567,77.893,82.567,77.893A13.6,13.6,0,0,0,64.079,82.45,13.138,13.138,0,0,0,62.53,92.544c.009.035.02.069.029.1a13.566,13.566,0,0,0-8.409,6.073A13.134,13.134,0,0,0,52.6,108.814c.008.035.019.068.028.1a13.581,13.581,0,0,0-8.411,6.072,13.116,13.116,0,0,0-1.774,8.98q-.93.91-1.733,1.85a13.519,13.519,0,0,0-6.427,5.437,13.139,13.139,0,0,0-1.939,7.224L2.021,154.973A3.857,3.857,0,0,0,.5,160.257L30.125,212.9a3.855,3.855,0,0,0,5.222,1.487L55.9,203.067a3.856,3.856,0,0,0,1.5-5.274l-3.857-6.837,9.709-5.363a39.884,39.884,0,0,0,17.96,4.275,43.585,43.585,0,0,0,19.966-5,41.877,41.877,0,0,0,15.4,3,39.931,39.931,0,0,0,16.739-3.7l9.5,5.688-4.1,6.7a3.864,3.864,0,0,0,1.315,5.327L160.181,213.9a3.873,3.873,0,0,0,1.975.544,3.834,3.834,0,0,0,3.294-1.848l3.607-5.913a3.857,3.857,0,1,0-6.584-4.019l-1.62,2.654-13.508-8.062,27.429-44.86,13.527,7.938-7.745,12.694a3.857,3.857,0,1,0,6.584,4.019v0L196.929,161a3.871,3.871,0,0,0,.448-2.947Zm-46.7,1.009,8.909-4.643a13.36,13.36,0,0,0,6.263-7.349l2.262,1.324-21.276,34.87-8.01-4.794s11.8-19.3,11.851-19.408ZM70.663,86.469a5.78,5.78,0,0,1,4.984-2.754,5.892,5.892,0,0,1,2.995.821l7.345,4.344a5.61,5.61,0,0,1,2.62,3.487,5.469,5.469,0,0,1-.649,4.2h0a5.607,5.607,0,0,1-1.622,1.7l-1.057.574a5.937,5.937,0,0,1-5.092-.216l-7.553-4.464h0a5.612,5.612,0,0,1-2.618-3.486,5.479,5.479,0,0,1,.648-4.208Zm-9.928,16.27a5.771,5.771,0,0,1,4.978-2.757,5.887,5.887,0,0,1,2.995.821l12.856,7.6a5.611,5.611,0,0,1,2.62,3.489,5.474,5.474,0,0,1-.648,4.206h0a5.915,5.915,0,0,1-7.763,2.061L62.7,110.43a5.6,5.6,0,0,1-2.617-3.483,5.478,5.478,0,0,1,.651-4.209ZM50.8,119.009a5.872,5.872,0,0,1,7.973-1.938L72,124.89a5.611,5.611,0,0,1,2.62,3.489,5.474,5.474,0,0,1-.648,4.206A5.869,5.869,0,0,1,66,134.517L52.772,126.7a5.61,5.61,0,0,1-2.62-3.487,5.467,5.467,0,0,1,.648-4.2Zm5.389,18.673a5.61,5.61,0,0,1,2.62,3.489,5.473,5.473,0,0,1-.648,4.205h0a5.873,5.873,0,0,1-7.978,1.938l-7.345-4.344a5.611,5.611,0,0,1-2.62-3.489,5.472,5.472,0,0,1,.648-4.2,5.877,5.877,0,0,1,7.978-1.938Zm-21.216,68.1L9.142,159.89l13.8-7.472,25.821,45.771ZM49.75,184.236,29.691,148.678l5.149-2.78a13.4,13.4,0,0,0,4.071,3.711l3.063,1.811,15.968,28.29Zm16.283-5.883L53.323,155.834A13.546,13.546,0,0,0,64.745,149.4h0a13.157,13.157,0,0,0,1.94-6.552,13.571,13.571,0,0,0,13.869-6.24,13.131,13.131,0,0,0,1.55-10.091c-.031-.125-.068-.247-.1-.371a13.449,13.449,0,0,0,8.118-6.025,13.131,13.131,0,0,0,1.55-10.091,13.267,13.267,0,0,0-2.164-4.631c.345-.188,33.048-17.835,33.125-17.876l.039-.021a5.947,5.947,0,0,1,4.482-.507,5.734,5.734,0,0,1,3.481,2.71,5.492,5.492,0,0,1,.5,4.238,5.7,5.7,0,0,1-2.772,3.44l-.01.005,0,0L106.86,109.111a3.857,3.857,0,1,0,3.7,6.771l25.236-13.774a5.951,5.951,0,0,1,4.482-.507,5.62,5.62,0,0,1,1.014,10.493l-25.053,13.673a3.857,3.857,0,1,0,3.7,6.771l23.386-12.769a5.95,5.95,0,0,1,4.451-.49,5.734,5.734,0,0,1,3.481,2.71,5.491,5.491,0,0,1,.5,4.237,5.686,5.686,0,0,1-2.761,3.434l-23.61,12.13a3.857,3.857,0,1,0,3.511,6.869l21.4-10.937a5.947,5.947,0,0,1,4.41-.468,5.734,5.734,0,0,1,3.481,2.71,5.492,5.492,0,0,1,.5,4.237,5.7,5.7,0,0,1-2.753,3.43L98.611,177.5l-.066.035c-10.862,5.93-22.366,6.209-32.512.822Zm45.091,1.322,26.312-13.711-6.65,10.869A32.367,32.367,0,0,1,111.125,179.676Z" transform="translate(0 -76)"/></svg>