<svg xmlns="http://www.w3.org/2000/svg" width="70.406" height="70.406" viewBox="0 0 70.406 70.406"><defs><style>.a{fill:#ce2323;}</style></defs><path class="a" d="M36.2,1a35.2,35.2,0,1,0,35.2,35.2A35.2,35.2,0,0,0,36.2,1Zm0,64.005a28.8,28.8,0,1,1,28.8-28.8A28.8,28.8,0,0,1,36.2,65.005Z" transform="translate(-1 -1)"/><path class="a" d="M14.2,9A3.2,3.2,0,0,0,11,12.2V34.6a3.2,3.2,0,0,0,6.4,0V12.2A3.2,3.2,0,0,0,14.2,9Z" transform="translate(21.002 16.602)"/><circle class="a" cx="3" cy="3" r="3" transform="translate(32.266 16)"/></svg>