<svg xmlns="http://www.w3.org/2000/svg" width="122.19" height="139.025" viewBox="0 0 122.19 139.025"><defs><style>.a{fill:#ce2323;}</style></defs><g transform="translate(0 24.71)"><path class="a" d="M150.07,152.367a12.212,12.212,0,0,0-9.1-20.365H117.255a78.976,78.976,0,0,0,3.351-20.639v-4.07A16.312,16.312,0,0,0,104.314,91h-4.073a4.072,4.072,0,0,0-3.951,3.085l-2.218,8.876c-3.109,12.431-12.979,26.146-23.194,28.639a12.235,12.235,0,0,0-11.366-7.744H35.073A4.074,4.074,0,0,0,31,127.929v73.314a4.075,4.075,0,0,0,4.073,4.073H59.511a12.232,12.232,0,0,0,11.03-6.965l13.995,4.665a44.7,44.7,0,0,0,14.169,2.3h34.121a12.222,12.222,0,0,0,11.361-16.721,12.212,12.212,0,0,0,5.884-19.936,12.194,12.194,0,0,0,0-16.292ZM63.584,193.1a4.078,4.078,0,0,1-4.073,4.073H39.146V132H59.511a4.078,4.078,0,0,1,4.073,4.073Zm69.241-36.657h8.146a4.073,4.073,0,1,1,0,8.146h-8.146a4.073,4.073,0,0,0,0,8.146h8.146a4.073,4.073,0,1,1,0,8.146h-8.146a4.073,4.073,0,0,0,0,8.146,4.073,4.073,0,1,1,0,8.146H98.7a36.579,36.579,0,0,1-11.594-1.882l-15.38-5.127v-50.4c6.389-1.214,12.643-5.26,18.288-11.882a59.43,59.43,0,0,0,11.956-22.942l1.447-5.792h.893a8.156,8.156,0,0,1,8.146,8.146v4.07c0,5.469-1.711,15.958-3.9,20.639h-8.32a4.073,4.073,0,0,0,0,8.146h40.73a4.073,4.073,0,1,1,0,8.146h-8.146a4.073,4.073,0,0,0,0,8.146Z" transform="translate(-31 -91)"/></g><g transform="translate(16.644 113.196)"><g transform="translate(0 0)"><ellipse class="a" cx="4" cy="4.5" rx="4" ry="4.5" transform="translate(0 0)"/></g></g><g transform="translate(73.314)"><path class="a" d="M305.073,0A4.073,4.073,0,0,0,301,4.073v8.418a4.073,4.073,0,0,0,8.146,0V4.073A4.073,4.073,0,0,0,305.073,0Z" transform="translate(-301)"/></g><g transform="translate(47.394 11.008)"><path class="a" d="M218.254,47.495l-5.76-5.76a4.073,4.073,0,1,0-5.76,5.76l5.76,5.76a4.073,4.073,0,0,0,5.76-5.76Z" transform="translate(-205.54 -40.542)"/></g><g transform="translate(93.475 11.008)"><path class="a" d="M387.96,41.734a4.073,4.073,0,0,0-5.76,0l-5.76,5.76a4.073,4.073,0,0,0,5.76,5.76l5.76-5.76A4.073,4.073,0,0,0,387.96,41.734Z" transform="translate(-375.247 -40.542)"/></g></svg>