<svg xmlns="http://www.w3.org/2000/svg" width="54.387" height="69.94" viewBox="0 0 54.387 69.94"><defs><style>.a{fill:#ce2323;}</style></defs><path class="a" d="M32.193,72.936A115.672,115.672,0,0,1,18.6,59.219C12.381,51.8,5,40.739,5,30.2a27.193,27.193,0,1,1,54.387,0c0,10.535-7.381,21.591-13.6,29.015A115.675,115.675,0,0,1,32.193,72.936Zm0-62.156A19.447,19.447,0,0,0,12.77,30.2c0,4.53,2.047,12.373,11.79,24.031a108.5,108.5,0,0,0,7.634,8.212,109.241,109.241,0,0,0,7.637-8.2C49.57,42.573,51.617,34.73,51.617,30.2A19.447,19.447,0,0,0,32.193,10.78Zm0,31.078a11.655,11.655,0,1,1,8.241-3.414A11.654,11.654,0,0,1,32.193,41.858Z" transform="translate(-5 -2.996)"/></svg>