<svg xmlns="http://www.w3.org/2000/svg" width="190.935" height="138.862" viewBox="0 0 190.935 138.862"><defs><style>.a{fill:#ce2323;}</style></defs><path class="a" d="M191.935,134.183a8.679,8.679,0,0,1-8.679,8.679H79.11a8.679,8.679,0,0,1-8.679-8.679A52.073,52.073,0,0,1,122.5,82.11h17.358A52.073,52.073,0,0,1,191.935,134.183ZM131.183,4A34.715,34.715,0,1,0,165.9,38.715,34.715,34.715,0,0,0,131.183,4ZM53.073,4A34.715,34.715,0,1,0,87.789,38.715,34.715,34.715,0,0,0,53.073,4Zm0,130.183a68.91,68.91,0,0,1,20.4-49.036A47.126,47.126,0,0,0,56.892,82.11H49.255A48.341,48.341,0,0,0,1,130.364v3.819a8.679,8.679,0,0,0,8.679,8.679H54.635a26.036,26.036,0,0,1-1.562-8.679Z" transform="translate(-1 -4)"/></svg>