<svg xmlns="http://www.w3.org/2000/svg" width="20" height="20" viewBox="0 0 20 20"><defs><style>.a{fill:#afafaf;}</style></defs><path class="a" d="M9.38,9.313a3.252,3.252,0,0,0-.6,4.343,14.242,14.242,0,0,0,3.564,3.564,3.252,3.252,0,0,0,4.343-.6l.011.005a14.917,14.917,0,0,0,4.079,1.22v2.933h0A15.247,15.247,0,0,1,5.222,5.226v0H8.155A14.908,14.908,0,0,0,9.375,9.3ZM20.777,23h1.112A1.111,1.111,0,0,0,23,21.889v-5a1.111,1.111,0,0,0-.948-1.1l-.949-.141a12.685,12.685,0,0,1-3.47-1.038l-.837-.387a1.111,1.111,0,0,0-1.371.362l-.379.53a1.039,1.039,0,0,1-1.435.281,12.021,12.021,0,0,1-3.006-3.006,1.038,1.038,0,0,1,.281-1.435l.53-.378A1.111,1.111,0,0,0,11.779,9.2l-.388-.837A12.685,12.685,0,0,1,10.353,4.9l-.141-.949A1.111,1.111,0,0,0,9.113,3h-5A1.111,1.111,0,0,0,3,4.111V5.224A17.468,17.468,0,0,0,20.777,23Z" transform="translate(-3 -3)"/></svg>